<svg width="20" height="20" viewBox="0 0 20 20" fill="none" xmlns="http://www.w3.org/2000/svg">
<path d="M16.875 6.25C17.3047 6.25 17.7083 6.33138 18.0859 6.49414C18.4635 6.6569 18.7923 6.88151 19.0723 7.16797C19.3522 7.45443 19.5768 7.78646 19.7461 8.16406C19.9154 8.54167 20 8.94531 20 9.375C20 9.74609 19.9382 10.1009 19.8145 10.4395C19.6908 10.778 19.5182 11.0807 19.2969 11.3477C19.0755 11.6146 18.8118 11.8457 18.5059 12.041C18.1999 12.2363 17.8646 12.3698 17.5 12.4414V13.4375C17.5 14.0169 17.4284 14.5801 17.2852 15.127C17.1419 15.6738 16.9401 16.1947 16.6797 16.6895C16.4193 17.1842 16.1003 17.6302 15.7227 18.0273C15.3451 18.4245 14.9251 18.7728 14.4629 19.0723C14.0007 19.3717 13.4961 19.5996 12.9492 19.7559C12.4023 19.9121 11.8359 19.9935 11.25 20C10.6576 20 10.0911 19.9186 9.55078 19.7559C9.01042 19.5931 8.50911 19.3652 8.04688 19.0723C7.58464 18.7793 7.16471 18.431 6.78711 18.0273C6.40951 17.6237 6.09049 17.1777 5.83008 16.6895C5.56966 16.2012 5.36458 15.6836 5.21484 15.1367C5.0651 14.5898 4.99349 14.0234 5 13.4375V11.2012C4.19922 11.1296 3.48958 10.9375 2.87109 10.625C2.2526 10.3125 1.72852 9.90234 1.29883 9.39453C0.869141 8.88672 0.546875 8.29753 0.332031 7.62695C0.117188 6.95638 0.00651042 6.23047 0 5.44922V0H3.125C3.29427 0 3.44076 0.061849 3.56445 0.185547C3.68815 0.309245 3.75 0.455729 3.75 0.625C3.75 0.794271 3.68815 0.940755 3.56445 1.06445C3.44076 1.18815 3.29427 1.25 3.125 1.25H1.25V5.44922C1.25 6.13932 1.3444 6.76432 1.5332 7.32422C1.72201 7.88411 2.00521 8.36263 2.38281 8.75977C2.76042 9.1569 3.21615 9.46289 3.75 9.67773C4.28385 9.89258 4.90885 10 5.625 10C6.28255 10 6.88151 9.89909 7.42188 9.69727C7.96224 9.49544 8.42122 9.20573 8.79883 8.82812C9.17643 8.45052 9.47266 7.99479 9.6875 7.46094C9.90234 6.92708 10.0065 6.32487 10 5.6543V1.25H8.125C7.95573 1.25 7.80924 1.18815 7.68555 1.06445C7.56185 0.940755 7.5 0.794271 7.5 0.625C7.5 0.455729 7.56185 0.309245 7.68555 0.185547C7.80924 0.061849 7.95573 0 8.125 0H11.25V5.44922C11.25 6.23047 11.1393 6.95638 10.918 7.62695C10.6966 8.29753 10.3743 8.88672 9.95117 9.39453C9.528 9.90234 9.00716 10.3125 8.38867 10.625C7.77018 10.9375 7.05729 11.1296 6.25 11.2012V13.4375C6.25 14.1341 6.3737 14.8014 6.62109 15.4395C6.86849 16.0775 7.2168 16.6439 7.66602 17.1387C8.11523 17.6335 8.64258 18.0241 9.24805 18.3105C9.85352 18.597 10.5208 18.7435 11.25 18.75C11.9727 18.75 12.6367 18.6035 13.2422 18.3105C13.8477 18.0176 14.375 17.627 14.8242 17.1387C15.2734 16.6504 15.6217 16.0872 15.8691 15.4492C16.1165 14.8112 16.2435 14.1406 16.25 13.4375V12.4414C15.8854 12.3633 15.5501 12.2298 15.2441 12.041C14.9382 11.8522 14.6745 11.6243 14.4531 11.3574C14.2318 11.0905 14.0592 10.7845 13.9355 10.4395C13.8118 10.0944 13.75 9.73958 13.75 9.375C13.75 8.94531 13.8314 8.54167 13.9941 8.16406C14.1569 7.78646 14.3783 7.45768 14.6582 7.17773C14.9382 6.89779 15.2702 6.67318 15.6543 6.50391C16.0384 6.33464 16.4453 6.25 16.875 6.25ZM16.875 11.25C17.1354 11.25 17.3796 11.2012 17.6074 11.1035C17.8353 11.0059 18.0339 10.8724 18.2031 10.7031C18.3724 10.5339 18.5059 10.3353 18.6035 10.1074C18.7012 9.87956 18.75 9.63542 18.75 9.375C18.75 9.11458 18.7012 8.87044 18.6035 8.64258C18.5059 8.41471 18.3724 8.21615 18.2031 8.04688C18.0339 7.8776 17.8353 7.74414 17.6074 7.64648C17.3796 7.54883 17.1354 7.5 16.875 7.5C16.6146 7.5 16.3704 7.54883 16.1426 7.64648C15.9147 7.74414 15.7161 7.8776 15.5469 8.04688C15.3776 8.21615 15.2441 8.41471 15.1465 8.64258C15.0488 8.87044 15 9.11458 15 9.375C15 9.63542 15.0488 9.87956 15.1465 10.1074C15.2441 10.3353 15.3776 10.5339 15.5469 10.7031C15.7161 10.8724 15.9147 11.0059 16.1426 11.1035C16.3704 11.2012 16.6146 11.25 16.875 11.25Z" fill="#E4E4E4"/>
</svg>
